<?xml version="1.0" ?>
<svg xmlns="http://www.w3.org/2000/svg" xmlns:ev="http://www.w3.org/2001/xml-events" xmlns:xlink="http://www.w3.org/1999/xlink" baseProfile="full" height="345.89642mm" id="svg5" version="1.1" viewBox="0 0 328.84314 345.89642" width="328.84314mm" xml:space="preserve">
	<defs/>
	<path d="M 147.121,345.523 C 105.813,342.797 77.753,336.41 53.328,324.17 C 26.131,310.544 10.188,292.506 3.637,267.953 C -0.505,252.43 -1.116,236.536 1.839,221.225 C 2.95,215.475 4.871,209.378 6.1,207.703 L 6.918,206.59 L 5.487,202.929 C 3.274,197.263 2.659,193.039 2.663,183.544 C 2.663,176.618 2.802,174.749 3.592,171.112 C 6.373,158.227 12.447,145.456 17.437,142.011 C 19.83,140.358 22.52,140.139 25.119,141.384 C 28.862,143.177 34.611,149.486 40.322,158.07 C 46.813,167.825 52.221,174.107 56.899,177.324 C 58.45,178.393 58.496,178.397 61.117,177.843 C 65.308,176.957 75.482,175.608 80.113,175.324 C 82.444,175.185 84.35,174.977 84.35,174.871 C 84.35,174.763 83.8,173.006 83.125,170.96 C 81.145,164.947 80.632,161.935 80.407,155.012 C 80.222,149.341 80.315,147.933 81.088,144.211 C 82.259,138.599 82.236,133.053 81.042,130.747 C 80.321,129.363 80.175,128.134 79.981,121.859 C 79.858,117.854 79.873,114.086 80.027,113.486 C 80.181,112.887 80.911,111.715 81.658,110.88 C 83.006,109.37 83.017,109.327 83.288,104.097 C 84.367,83.321 91.043,65.535 103.65,49.851 C 109.417,42.675 115.803,36.892 124.8,30.693 L 129.534,27.433 L 129.317,25.767 C 129.127,24.312 129.271,23.911 130.421,22.597 C 131.893,20.921 135.146,18.898 138.623,17.499 C 140.909,16.578 140.919,16.567 140.466,15.369 C 139.916,13.911 140.327,13.089 142.168,12.013 C 143.795,11.061 148.928,10.142 152.725,10.123 L 155.676,10.103 L 154.867,8.778 C 153.175,6.003 154.294,3.981 157.51,3.998 C 158.413,3.998 160.647,4.512 162.474,5.131 C 165.571,6.179 165.758,6.2 165.225,5.439 C 164.911,4.99 164.654,3.944 164.654,3.113 C 164.654,1.952 164.914,1.397 165.775,0.715 C 168.115,-1.139 173.786,0.685 180.27,5.359 C 182.021,6.623 183.694,7.658 183.988,7.658 C 184.333,7.658 184.593,6.923 184.723,5.589 C 184.83,4.43 185.22,3.22 185.604,2.837 C 186.639,1.802 189.478,2.018 191.663,3.3 C 194.983,5.245 199.897,11.354 201.484,15.509 C 202.106,17.138 202.367,17.386 203.701,17.619 C 209.769,18.676 221.654,22.965 228.24,26.477 C 241.028,33.296 253.257,44.955 261.539,58.222 C 264.474,62.925 269.816,74.13 269.816,75.584 C 269.816,75.913 270.359,76.859 271.021,77.687 C 273.806,81.165 277.173,90.852 278.824,100.148 C 279.286,102.745 279.788,105.001 279.939,105.159 C 280.093,105.318 282.324,105.109 284.9,104.688 C 293.117,103.357 300.059,102.902 307.919,103.183 C 316.925,103.505 326.259,104.685 327.193,105.62 C 327.698,106.125 327.971,107.871 328.364,113.115 C 329.061,122.406 329.078,122.061 327.874,123.108 C 326.583,124.231 325.321,126.234 324.833,127.935 C 324.631,128.642 324.27,132.27 324.033,136.0 C 323.315,147.252 322.374,153.206 320.286,159.693 C 316.805,170.511 309.932,178.958 300.338,184.213 C 295.237,187.006 295.508,186.513 297.462,189.44 C 299.934,193.14 299.657,195.349 296.26,199.034 C 293.994,201.493 293.441,201.753 286.266,203.721 C 278.668,205.805 273.485,207.469 273.485,207.825 C 273.485,208.381 274.675,209.037 280.673,211.785 C 284.047,213.332 288.164,215.473 289.827,216.546 C 300.48,223.42 308.224,237.976 309.57,253.665 C 310.103,259.878 308.249,269.088 305.456,274.093 C 304.462,275.874 304.054,277.119 304.054,278.373 C 304.054,281.343 302.864,287.668 301.606,291.424 C 295.744,308.923 280.127,323.397 257.588,332.224 C 238.318,339.77 217.066,343.664 184.83,345.554 C 176.778,346.027 154.529,346.004 147.127,345.524 L 147.121,345.523 M 186.251,339.448 C 219.439,337.633 242.504,333.11 260.792,324.833 C 267.335,321.872 270.693,319.936 276.199,315.952 C 286.476,308.515 293.701,298.919 296.87,288.496 C 302.972,268.429 296.496,248.329 277.964,229.807 C 271.494,223.34 259.784,213.912 258.224,213.912 C 257.95,213.912 256.466,214.916 254.926,216.144 C 251.515,218.862 247.401,220.944 243.088,222.137 C 240.255,222.919 238.833,223.032 231.699,223.033 C 224.062,223.033 223.29,222.973 219.485,221.916 C 215.229,220.744 210.223,218.577 206.304,216.21 C 205.027,215.44 201.971,214.053 199.513,213.132 C 193.889,211.022 190.259,208.874 187.44,205.992 L 185.233,203.733 L 180.833,203.733 C 168.605,203.723 159.639,198.944 152.804,188.813 C 148.637,182.639 145.295,173.594 143.043,162.391 C 141.992,157.161 140.29,151.962 139.629,151.962 C 139.309,151.962 124.715,148.022 117.57,146.009 C 108.602,143.481 97.044,139.64 91.858,137.468 C 89.481,136.473 87.483,135.656 87.42,135.656 C 87.358,135.656 87.389,136.436 87.482,137.39 C 87.59,138.456 87.263,140.766 86.616,143.402 C 84.809,150.782 85.299,160.623 87.853,168.234 C 94.961,189.409 116.01,204.993 149.562,213.927 C 158.555,216.323 158.501,216.293 153.983,216.33 C 147.214,216.39 136.257,214.067 126.171,210.446 C 123.956,209.649 122.07,209.071 121.983,209.159 C 121.462,209.68 128.726,214.154 135.091,217.233 C 137.781,218.535 139.814,219.604 139.608,219.612 C 138.6,219.642 129.607,216.981 126.447,215.714 C 119.487,212.924 114.984,209.675 112.758,205.835 C 111.655,203.932 110.73,203.054 107.537,200.874 C 99.27,195.231 95.232,191.375 90.289,184.398 C 87.966,181.123 87.346,180.496 86.442,180.508 C 82.526,180.568 73.582,181.414 66.743,182.38 L 58.721,183.514 L 55.72,181.99 C 49.712,178.941 43.755,172.651 35.299,160.433 C 28.511,150.624 24.632,146.668 21.804,146.664 C 18.105,146.664 11.869,158.446 9.106,170.667 C 6.629,181.616 7.742,196.853 11.48,203.188 C 11.919,203.932 12.412,204.542 12.574,204.542 C 12.738,204.542 13.751,203.251 14.83,201.674 C 15.906,200.098 16.868,198.885 16.965,198.982 C 17.058,199.072 16.124,201.184 14.882,203.659 C 12.822,207.766 10.257,215.092 9.539,218.919 C 9.382,219.76 9.06,220.567 8.826,220.712 C 8.533,220.892 8.483,219.803 8.664,217.242 C 8.803,215.189 8.772,213.51 8.587,213.51 C 8.131,213.51 6.2,222.912 5.626,227.909 C 4.989,233.477 5.392,250.831 6.277,255.901 C 7.925,265.354 10.04,272.316 13.425,279.427 C 20.65,294.606 31.3,305.357 49.487,315.835 C 66.785,325.799 88.802,332.67 115.32,336.381 C 124.403,337.652 138.123,338.986 146.501,339.413 C 156.127,339.904 177.61,339.926 186.242,339.463 L 186.251,339.448 M 61.203,299.884 C 55.765,299.043 49.498,296.026 47.797,293.43 C 47.418,292.851 46.799,291.378 46.42,290.155 C 45.75,287.991 45.634,287.872 42.008,285.669 C 36.68,282.434 34.077,280.269 31.259,276.731 C 28.221,272.916 26.608,269.566 25.776,265.341 C 24.576,259.258 26.325,253.817 30.376,251.017 L 32.427,249.602 L 32.894,245.199 C 33.493,239.568 34.702,236.737 37.729,233.873 C 42.293,229.558 46.722,228.502 60.505,228.447 C 76.615,228.387 89.128,230.545 98.005,234.929 C 99.575,235.704 100.53,236.248 100.129,236.137 C 98.399,235.658 89.503,234.293 85.573,233.902 C 72.008,232.555 55.937,232.261 50.69,233.266 C 42.026,234.923 37.538,239.252 37.163,246.316 C 36.702,254.987 41.941,264.77 50.111,270.485 C 53.445,272.818 53.827,273.161 52.557,272.676 C 44.318,269.533 39.557,265.497 36.029,258.665 C 35.01,256.693 34.043,255.08 33.878,255.08 C 33.117,255.08 31.678,256.514 30.889,258.061 C 29.794,260.207 29.725,264.215 30.734,267.104 C 32.296,271.571 36.14,276.352 40.868,279.71 C 45.468,282.976 53.968,286.641 60.845,288.322 C 70.657,290.722 84.345,289.825 95.117,286.079 C 96.443,285.617 97.617,285.33 97.726,285.44 C 98.04,285.754 92.142,288.323 88.378,289.513 C 81.98,291.534 76.051,292.28 68.046,292.067 C 61.893,291.904 60.352,291.723 56.837,290.757 C 54.595,290.14 52.211,289.542 51.537,289.426 L 50.316,289.218 L 51.534,290.514 C 54.853,294.042 61.428,295.653 71.102,295.31 C 93.878,294.506 112.244,283.295 121.659,264.454 C 123.683,260.401 125.046,256.717 125.478,254.132 C 125.784,252.296 125.837,252.63 125.875,256.71 C 125.921,261.034 125.813,261.706 124.544,265.383 C 121.28,274.851 114.264,283.129 104.053,289.557 C 96.998,294.0 88.454,297.371 79.867,299.101 C 74.937,300.093 65.197,300.503 61.203,299.884 M 42.163,292.908 C 25.773,282.519 16.397,273.89 11.893,265.052 C 10.354,262.034 8.112,254.978 7.096,249.956 C 5.691,243.02 5.876,242.19 7.555,247.892 C 8.339,250.551 9.853,254.678 10.922,257.063 C 16.75,270.076 24.32,278.807 39.692,290.24 C 45.36,294.455 45.059,294.211 44.574,294.204 C 44.369,294.204 43.285,293.618 42.163,292.908 L 42.163,292.908 M 90.267,216.52 C 89.373,216.193 86.805,215.531 84.561,215.047 C 80.849,214.249 79.121,214.163 65.6,214.092 C 50.009,214.012 48.338,213.839 45.976,212.08 C 45.184,211.49 45.158,211.416 45.837,211.656 C 48.804,212.713 51.986,212.809 60.089,212.083 C 74.416,210.801 81.244,211.567 89.044,215.331 C 92.747,217.119 93.259,217.612 90.273,216.52 L 90.267,216.52 M 302.43,262.126 C 301.884,258.74 300.94,255.736 299.586,253.083 C 298.116,250.202 298.167,251.498 299.678,255.559 C 300.79,258.537 302.163,263.732 302.445,266.025 C 302.46,266.164 302.584,266.045 302.698,265.734 C 302.821,265.429 302.698,263.806 302.425,262.126 L 302.43,262.126 M 304.311,256.2 C 303.873,247.494 302.062,241.102 298.045,234.088 C 293.048,225.358 287.101,220.21 276.943,215.814 C 273.92,214.506 265.353,211.465 264.691,211.465 C 263.91,211.465 265.042,212.571 268.077,214.773 C 276.983,221.236 286.333,230.006 291.071,236.347 C 295.906,242.814 299.953,249.482 301.596,253.684 C 302.496,255.987 303.234,258.022 303.236,258.207 C 303.236,258.942 304.101,261.601 304.334,261.601 C 304.473,261.601 304.457,259.17 304.319,256.2 L 304.311,256.2 M 240.054,218.52 C 243.918,217.726 249.62,215.682 250.318,214.842 C 250.777,214.289 250.738,214.235 250.037,214.452 C 249.591,214.591 246.841,215.304 243.927,216.038 C 238.871,217.312 238.283,217.372 231.087,217.356 C 222.773,217.336 218.989,216.694 212.745,214.234 C 208.965,212.744 195.705,205.767 193.077,203.886 C 191.114,202.479 190.327,202.191 190.327,202.877 C 190.327,203.88 194.317,206.264 204.389,211.285 C 215.934,217.038 219.601,218.364 226.236,219.187 C 229.952,219.647 235.986,219.356 240.054,218.52 M 226.407,212.063 C 231.249,211.062 236.277,209.258 247.595,204.459 C 267.237,196.129 274.748,194.384 283.057,196.211 C 292.019,198.183 291.426,198.183 293.726,196.191 L 295.262,194.865 L 293.978,194.201 C 289.762,192.021 276.67,191.721 269.382,193.639 C 264.579,194.902 258.543,197.248 248.207,201.871 C 232.226,209.02 227.459,210.431 219.266,210.435 C 213.938,210.435 213.665,210.385 210.633,209.09 C 207.404,207.699 198.968,202.669 197.374,201.183 C 196.497,200.366 196.44,200.363 195.354,201.075 L 194.235,201.808 L 195.18,202.457 C 196.69,203.497 205.75,208.517 208.962,210.095 C 210.579,210.89 212.781,211.78 213.853,212.076 C 216.549,212.817 222.776,212.809 226.407,212.066 L 226.407,212.063 M 230.475,205.36 C 234.729,203.967 241.926,200.757 251.082,196.169 C 265.018,189.186 274.275,186.709 285.006,187.088 C 288.987,187.226 290.384,187.444 291.974,188.155 C 294.482,189.28 294.619,189.272 293.479,188.065 C 292.352,186.866 289.8,185.831 283.872,184.173 C 278.564,182.687 276.036,181.733 271.643,179.558 C 267.493,177.501 265.501,176.129 261.454,172.533 C 254.07,165.972 251.807,164.374 249.088,163.797 C 244.186,162.757 239.448,163.689 232.196,167.126 L 228.619,168.82 L 226.528,172.721 C 220.368,184.226 214.563,190.661 205.079,196.499 C 203.215,197.647 201.604,198.729 201.496,198.903 C 201.194,199.391 205.959,202.739 209.223,204.335 C 213.787,206.565 215.926,207.003 221.509,206.843 C 225.7,206.719 226.983,206.511 230.475,205.367 L 230.475,205.36 M 226.12,203.035 C 226.414,202.912 226.766,202.928 226.901,203.065 C 227.04,203.204 226.793,203.296 226.367,203.279 C 225.891,203.269 225.795,203.156 226.12,203.033 L 226.12,203.035 M 231.495,201.316 C 233.849,200.464 237.684,198.913 240.016,197.867 C 242.348,196.822 244.323,196.034 244.403,196.114 C 244.682,196.393 235.516,200.495 231.927,201.697 C 226.746,203.433 226.425,203.149 231.495,201.316 M 245.761,195.365 C 246.321,195.045 246.964,194.783 247.187,194.783 C 247.412,194.783 247.141,195.045 246.576,195.365 C 246.016,195.685 245.374,195.947 245.149,195.947 C 244.926,195.947 245.195,195.685 245.761,195.365 M 248.004,181.951 C 247.33,181.653 245.955,180.685 244.946,179.799 C 242.655,177.789 239.247,175.453 238.985,175.714 C 238.877,175.822 240.081,177.079 241.66,178.505 C 243.239,179.932 244.533,181.26 244.534,181.457 C 244.534,181.961 240.948,181.427 237.808,180.457 C 235.667,179.795 235.163,179.479 235.163,178.795 C 235.163,177.385 236.822,174.894 238.284,174.107 C 239.649,173.372 239.683,173.375 241.57,174.377 C 244.373,175.863 250.96,182.58 249.546,182.509 C 249.37,182.499 248.675,182.25 248.004,181.951 L 248.004,181.951 M 261.405,177.02 C 260.256,176.495 258.056,175.261 256.514,174.278 C 252.3,171.593 252.228,171.628 255.543,174.745 C 257.225,176.325 258.456,177.621 258.279,177.626 C 257.698,177.646 254.694,175.979 252.655,174.512 C 251.26,173.512 250.652,172.791 250.652,172.143 C 250.652,169.793 253.587,169.777 256.948,172.113 C 258.9,173.469 264.13,178.026 263.696,177.995 C 263.588,177.975 262.553,177.551 261.405,177.026 L 261.405,177.02 M 190.939,198.452 C 201.176,195.833 213.087,186.841 219.055,177.227 C 224.632,168.242 228.234,155.959 228.234,145.93 C 228.234,141.336 227.465,138.075 225.495,134.316 C 224.057,131.577 220.206,127.499 219.055,127.499 C 218.75,127.499 219.516,128.459 220.758,129.633 C 223.668,132.387 224.783,134.339 225.849,138.55 C 227.849,146.446 225.572,160.245 220.51,170.909 C 215.249,181.99 205.469,191.252 194.368,195.667 C 186.499,198.797 174.778,198.799 168.521,195.667 C 159.202,191.011 153.405,180.653 149.578,161.824 C 148.493,156.495 148.232,155.721 147.23,154.909 C 145.788,153.738 145.311,153.738 146.056,154.909 C 146.378,155.412 147.122,158.484 147.709,161.735 C 149.76,173.081 152.399,180.22 157.024,186.929 C 161.265,193.082 166.861,197.041 173.82,198.813 C 178.041,199.887 185.98,199.719 190.939,198.449 L 190.939,198.452 M 298.403,179.661 C 308.57,173.637 314.72,164.785 317.273,152.502 C 320.308,137.906 317.877,122.489 311.491,115.83 C 308.507,112.718 307.048,112.189 309.871,115.243 C 314.706,120.474 316.654,126.399 316.98,136.88 C 317.369,149.29 315.078,158.518 309.535,166.868 C 305.787,172.514 300.55,176.908 293.043,180.707 C 289.64,182.429 289.295,182.7 290.19,182.936 C 291.38,183.25 294.327,182.075 298.403,179.661 L 298.403,179.661 M 257.332,161.647 C 255.178,157.37 253.312,152.341 252.088,147.503 C 250.969,143.091 250.097,140.95 249.419,140.95 C 248.891,140.95 248.877,140.842 250.026,145.36 C 251.347,150.546 252.658,154.326 254.439,158.07 C 255.796,160.925 258.141,164.591 258.609,164.591 C 258.717,164.591 258.148,163.266 257.332,161.647 L 257.332,161.647 M 238.831,160.475 C 241.939,159.721 247.612,159.805 249.532,160.63 C 250.372,160.992 251.06,161.231 251.06,161.162 C 251.06,161.082 250.33,159.479 249.44,157.577 C 247.423,153.273 244.946,145.949 244.946,144.288 C 244.946,141.165 242.989,139.816 239.443,140.495 C 235.55,141.241 235.018,142.04 233.566,149.324 C 232.897,152.676 231.791,157.295 231.107,159.586 C 230.423,161.877 229.865,163.836 229.865,163.941 C 229.865,164.049 231.378,163.431 233.227,162.574 C 235.077,161.719 237.599,160.774 238.831,160.475 M 153.419,149.816 C 155.062,142.883 158.633,137.676 164.221,134.065 C 167.519,131.934 170.394,131.338 181.156,130.557 C 194.339,129.602 198.304,128.812 197.996,127.202 C 197.495,124.588 185.097,124.985 175.576,127.92 C 170.203,129.577 163.349,133.082 160.499,135.632 C 156.329,139.363 153.52,144.804 152.65,150.834 C 152.237,153.693 152.619,153.188 153.419,149.816 L 153.419,149.816 M 136.818,142.275 C 136.574,135.76 136.368,134.429 135.601,134.429 C 135.311,134.429 135.254,136.296 135.425,140.236 C 135.651,145.442 136.191,148.694 136.83,148.694 C 136.953,148.694 136.953,145.806 136.83,142.275 L 136.818,142.275 M 143.251,141.822 C 142.969,135.981 142.989,135.735 143.822,134.959 C 144.75,134.094 154.734,130.212 163.018,127.495 C 171.112,124.84 180.531,122.699 188.834,121.627 C 199.675,120.226 199.486,119.709 188.451,120.576 C 177.437,121.44 170.432,122.774 159.553,126.076 C 154.263,127.681 141.045,132.626 140.418,133.235 C 140.181,133.466 140.449,134.043 141.133,134.754 C 142.186,135.855 142.23,136.075 142.234,140.361 C 142.234,145.346 142.545,147.879 143.145,147.879 C 143.402,147.879 143.44,145.715 143.252,141.822 L 143.251,141.822 M 150.789,140.135 C 152.906,138.02 150.086,135.133 147.866,137.141 C 146.853,138.058 146.928,139.546 148.027,140.315 C 149.224,141.155 149.809,141.116 150.789,140.135 M 144.434,127.864 C 147.102,126.772 149.353,125.811 149.436,125.728 C 149.513,125.648 149.313,124.406 148.971,122.973 C 146.223,111.316 153.007,100.475 163.424,99.877 C 171.565,99.41 178.057,105.255 180.908,115.615 L 181.654,118.328 L 183.442,118.268 C 184.427,118.238 188.441,118.072 192.365,117.909 C 203.477,117.443 213.169,118.885 220.038,122.027 C 223.786,123.74 222.857,123.778 230.884,121.569 C 234.41,120.597 235.756,120.44 240.869,120.406 L 246.781,120.356 L 250.449,118.066 C 252.467,116.808 255.019,115.243 256.121,114.588 L 258.125,113.399 L 258.033,108.278 C 257.819,96.876 259.93,90.805 264.107,90.805 C 267.64,90.805 271.983,96.664 273.691,103.738 C 274.421,106.76 275.232,107.48 274.839,104.758 C 274.568,102.875 271.308,91.067 270.142,87.747 C 267.771,80.996 264.154,76.023 260.64,74.682 C 258.95,74.036 258.754,74.034 257.797,74.662 C 256.352,75.608 256.516,74.785 258.024,73.519 C 259.387,72.371 260.201,72.237 261.895,72.883 C 262.501,73.112 263.065,73.234 263.146,73.151 C 263.427,72.872 258.908,64.125 256.605,60.489 C 249.856,49.828 239.856,39.713 229.819,33.395 C 225.777,30.85 218.409,27.487 213.36,25.882 C 208.076,24.201 202.666,22.9 202.336,23.231 C 202.213,23.354 201.926,24.701 201.712,26.212 C 201.202,29.812 200.919,30.887 200.477,30.887 C 200.276,30.887 200.113,30.544 200.113,30.125 C 200.113,29.704 199.654,27.549 199.092,25.335 C 197.765,20.097 194.282,12.951 191.754,10.273 C 190.689,9.147 189.979,8.623 190.135,9.081 C 190.891,11.307 192.786,19.329 192.681,19.869 C 192.604,20.238 192.124,19.746 191.478,18.657 C 190.884,17.649 189.554,16.006 188.527,15.006 L 186.656,13.185 L 186.915,15.662 C 187.226,18.632 186.684,19.247 185.476,17.294 C 183.743,14.487 177.837,9.688 173.086,7.225 C 171.613,6.462 170.288,5.958 170.14,6.106 C 169.986,6.26 170.442,7.203 171.14,8.218 C 172.799,10.628 178.875,21.267 178.698,21.453 C 178.621,21.533 177.296,20.506 175.748,19.173 C 171.225,15.28 161.126,9.414 160.327,10.213 C 159.889,10.649 161.684,12.761 165.89,16.761 L 169.992,20.661 L 165.998,18.991 C 159.919,16.451 157.201,15.77 152.117,15.516 C 149.595,15.393 147.533,15.408 147.533,15.546 C 147.533,15.684 148.652,16.351 150.02,17.014 C 154.428,19.149 154.585,19.742 150.772,19.828 C 147.556,19.908 142.492,20.953 140.521,21.957 C 139.67,22.393 138.972,22.809 138.972,22.885 C 138.972,22.965 141.586,22.935 144.781,22.835 C 151.364,22.625 155.374,23.286 161.234,25.546 C 165.318,27.122 167.134,28.307 164.039,27.379 C 152.698,23.975 143.872,25.383 131.924,32.5 C 116.946,41.421 104.771,54.51 97.218,69.811 C 92.07,80.239 88.804,94.03 88.167,108.036 C 88.013,111.335 87.821,114.032 87.728,114.032 C 87.636,114.032 87.206,113.843 86.772,113.61 C 86.174,113.291 85.984,113.322 85.984,113.733 C 85.984,115.6 93.273,119.352 103.528,122.764 C 109.0,124.585 131.173,130.984 134.285,131.641 C 134.734,131.731 136.109,131.366 137.342,130.821 C 138.576,130.277 141.768,128.937 144.438,127.843 L 144.434,127.864 M 140.8,90.204 C 141.981,86.294 147.327,80.557 151.89,78.303 C 154.807,76.861 155.273,76.755 158.513,76.778 C 160.952,76.798 162.366,77.006 163.221,77.479 L 164.444,78.152 L 162.609,77.921 C 156.962,77.209 148.647,81.252 143.604,87.161 C 142.736,88.178 141.695,89.463 141.29,90.015 C 140.694,90.828 140.6,90.865 140.8,90.204 L 140.8,90.204 M 251.732,125.133 C 260.883,116.048 275.259,110.265 295.488,107.534 L 301.399,106.736 L 296.015,106.942 C 280.85,107.521 266.367,112.014 254.862,119.709 C 249.469,123.317 248.614,124.21 248.614,126.236 C 248.614,127.156 248.691,127.907 248.776,127.907 C 248.868,127.907 250.194,126.658 251.732,125.133 L 251.732,125.133 M 235.775,126.094 C 237.568,125.761 240.079,125.483 241.353,125.475 C 242.627,125.465 244.18,125.267 244.804,125.03 C 248.652,123.568 237.736,123.381 230.884,124.792 L 226.401,125.717 L 227.622,126.413 C 228.964,127.176 230.204,127.128 235.775,126.094 M 288.152,119.283 C 293.687,118.234 303.866,115.756 305.613,115.032 C 310.27,113.101 300.108,111.71 290.802,113.006 C 280.602,114.425 274.011,116.963 274.851,119.148 C 274.974,119.493 275.507,119.95 276.017,120.168 C 277.253,120.692 282.879,120.276 288.152,119.283 L 288.152,119.283 M 321.238,115.412 C 322.83,113.972 321.684,111.196 319.498,111.196 C 317.609,111.196 316.521,113.443 317.513,115.298 C 318.045,116.29 320.194,116.356 321.238,115.406 L 321.238,115.412 M 165.124,111.659 C 167.055,109.498 166.51,106.432 163.962,105.129 C 161.055,103.642 157.381,105.793 157.056,109.171 C 156.775,112.077 158.291,113.343 161.761,113.103 C 163.628,112.98 164.148,112.752 165.124,111.659 M 263.825,101.76 C 264.985,101.148 265.315,100.618 265.307,99.375 C 265.292,96.748 261.96,95.249 260.832,97.358 C 260.217,98.504 260.362,100.657 261.109,101.482 C 261.89,102.345 262.577,102.416 263.825,101.76 M 268.858,100.365 C 269.2,99.473 268.188,97.743 267.324,97.743 C 266.721,97.743 266.661,97.939 266.952,98.954 C 267.564,101.083 268.357,101.67 268.858,100.365 L 268.858,100.365" id="path44" style="fill:none;stroke:#8B5CF6;stroke-width:8;stroke-linecap:round;stroke-linejoin:round"/>
</svg>
